HIERARCHY
ROOT Hips
{
	OFFSET 0.000000 0.000000 0.000000
	CHANNELS 6 Xposition Yposition Zposition Zrotation Yrotation Xrotation 
	JOINT LHipJoint
	{
		OFFSET 0.000000 0.000000 0.000000
		CHANNELS 3 Zrotation Yrotation Xrotation
		JOINT LeftUpLeg
		{
			OFFSET 1.363060 -1.794630 0.839290
			CHANNELS 3 Zrotation Yrotation Xrotation
			JOINT LeftLeg
			{
				OFFSET 2.448110 -6.726130 0.000000
				CHANNELS 3 Zrotation Yrotation Xrotation
				JOINT LeftFoot
				{
					OFFSET 2.562200 -7.039590 0.000000
					CHANNELS 3 Zrotation Yrotation Xrotation
					JOINT LeftToeBase
					{
						OFFSET 0.157640 -0.433110 2.322550
						CHANNELS 3 Zrotation Yrotation Xrotation
						End Site
						{
							OFFSET 0.000000 0.000000 0.000000
						}
					}
				}
			}
		}
	}
	JOINT RHipJoint
	{
		OFFSET 0.000000 0.000000 0.000000
		CHANNELS 3 Zrotation Yrotation Xrotation
		JOINT RightUpLeg
		{
			OFFSET -1.305520 -1.794630 0.839290
			CHANNELS 3 Zrotation Yrotation Xrotation
			JOINT RightLeg
			{
				OFFSET -2.542530 -6.985550 0.000000
				CHANNELS 3 Zrotation Yrotation Xrotation
				JOINT RightFoot
				{
					OFFSET -2.568260 -7.056230 0.000000
					CHANNELS 3 Zrotation Yrotation Xrotation
					JOINT RightToeBase
					{
						OFFSET -0.164730 -0.452590 2.363150
						CHANNELS 3 Zrotation Yrotation Xrotation
						End Site
						{
							OFFSET 0.000000 0.000000 0.000000
						}
					}
				}
			}
		}
	}
}
MOTION
Frames: 25
Frame Time: 0.008333
-11.992297 16.762082 0.968503 -6.968852 87.343347 8.686645 -11.472191 2.436218 -2.533658 -1.752649 5.070877 -3.878580 -0.127207 2.200633 34.516348 1.522910 9.154537 9.673255 2.310400 0.000000 -84.071500 8.956278 0.879045 0.648456 4.431095 1.527800 -39.538966 1.858942 -1.178296 17.386447 -0.685025 -4.020852 10.021512 -1.900400 -0.000001 -44.692000
-11.823301 16.773338 0.998840 -20.530465 87.677491 -4.962873 -11.697333 2.196042 -2.604704 -0.918582 5.627114 -5.115716 0.169040 2.249262 37.118603 1.716221 10.113244 11.790032 2.833900 0.000000 -81.546400 8.785054 0.622311 0.515886 5.390541 1.200670 -39.392486 1.983094 -1.325985 18.653708 -0.662800 -3.753643 9.042117 -1.732900 -0.000000 -45.255100
-11.656987 16.786206 1.031342 -32.464210 87.874094 -16.983157 -11.978793 1.948268 -2.666727 -0.240957 6.195308 -6.440980 0.421265 2.289999 39.745622 1.933650 11.248467 13.690686 3.443900 0.000000 -77.565299 8.566753 0.373678 0.369861 6.254681 0.820084 -39.158765 2.109209 -1.443062 19.769741 -0.631430 -3.455279 7.924032 -1.560000 0.000000 -45.888701
-11.493493 16.800451 1.066310 -42.320089 87.945917 -26.916264 -12.251673 1.720134 -2.723333 0.291124 6.759020 -7.843866 0.613781 2.340829 42.370316 2.162540 12.533125 15.241990 4.119700 0.000000 -72.372200 8.360821 0.165985 0.217873 7.030086 0.425782 -38.836240 2.226405 -1.527671 20.716822 -0.599633 -3.170034 6.755274 -1.400500 0.000000 -46.510200
-11.332848 16.815912 1.103970 -50.219375 87.953483 -34.878746 -12.477825 1.514137 -2.778803 0.677756 7.288614 -9.309271 0.753339 2.406251 44.962425 2.389603 13.929737 16.353094 4.828400 -0.000000 -66.416000 8.196688 0.002407 0.070857 7.704567 0.032948 -38.435554 2.328504 -1.584515 21.487476 -0.575318 -2.929802 5.607391 -1.263999 -0.000000 -47.046200
-11.175083 16.832574 1.144114 -56.674887 87.948716 -41.380128 -12.650352 1.327219 -2.833734 0.918336 7.758067 -10.824916 0.853866 2.486391 47.488234 2.604986 15.388513 16.988232 5.526100 -0.000000 -60.265900 8.076952 -0.124644 -0.063549 8.267340 -0.346660 -37.970324 2.412481 -1.617743 22.080679 -0.563285 -2.758558 4.538285 -1.155900 -0.000000 -47.440300
-11.020163 16.850573 1.186414 -62.149997 87.963152 -46.881285 -12.772540 1.158785 -2.886722 1.008582 8.147055 -12.378214 0.928230 2.580137 49.913634 2.803106 16.856473 17.157158 6.166400 -0.000000 -54.427600 7.997905 -0.220729 -0.182586 8.710454 -0.706141 -37.455976 2.476526 -1.630955 22.506274 -0.564712 -2.665680 3.587573 -1.076500 0.000001 -47.665100
-10.867991 16.870087 1.230082 -67.127470 88.011558 -51.862264 -12.853906 1.007345 -2.934832 0.954049 8.443422 -13.961558 0.986728 2.684814 52.210407 2.981297 18.278797 16.899256 6.705000 -0.000000 -49.260000 7.950896 -0.291885 -0.285307 9.038200 -1.038205 -36.906751 2.520951 -1.626740 22.775419 -0.579153 -2.654219 2.777974 -1.024400 -0.000001 -47.723000
-10.718406 16.891374 1.274344 -71.944204 88.098162 -56.660344 -12.902189 0.872159 -2.975825 0.760802 8.643152 -15.564214 1.035791 2.796751 54.351256 3.138935 19.609417 16.273823 7.109300 -0.000000 -44.997701 7.929598 -0.341696 -0.373489 9.257550 -1.342383 -36.333735 2.547128 -1.607795 22.905321 -0.604245 -2.714779 2.113136 -0.995400 0.000001 -47.644300
-10.571310 16.914676 1.318338 -76.869820 88.219195 -61.548941 -12.924806 0.752173 -3.009752 0.442168 8.755352 -17.173272 1.078267 2.912613 56.313819 3.274676 20.801182 15.327315 7.349000 -0.000001 -41.564099 7.927807 -0.373668 -0.450692 9.381438 -1.622235 -35.741454 2.557900 -1.576538 22.913434 -0.636622 -2.830423 1.582580 -0.984101 -0.000000 -47.478900
-10.426479 16.940175 1.361094 -82.173918 88.364943 -66.801916 -12.929713 0.645380 -3.036727 0.018839 8.796472 -18.777890 1.114282 3.029186 58.077222 3.387356 21.815018 14.105963 7.404900 0.000000 -38.782500 7.938001 -0.392312 -0.520342 9.429415 -1.881799 -35.129928 2.557366 -1.534513 22.813109 -0.672889 -2.982885 1.167673 -0.985600 0.000000 -47.284999
-10.283684 16.967966 1.401818 -88.024870 88.523091 -72.594550 -12.922382 0.549862 -3.057607 -0.486733 8.786479 -20.362811 1.141751 3.143199 59.616458 3.477062 22.630249 12.673605 7.280200 0.000000 -36.561400 7.954597 -0.401091 -0.587048 9.421256 -2.128649 -34.493311 2.549969 -1.482934 22.615273 -0.709352 -3.150760 0.845216 -0.994500 -0.000000 -47.119800
-10.142730 16.998073 1.439837 -94.474213 88.679595 -78.985864 -12.905972 0.464234 -3.073943 -1.050823 8.749347 -21.912438 1.157296 3.251904 60.908909 3.544340 23.239454 11.098728 6.994500 0.000000 -34.873300 7.973859 -0.402972 -0.655029 9.376890 -2.370667 -33.821756 2.540128 -1.422540 22.326877 -0.742647 -3.314111 0.592361 -1.006000 -0.000001 -47.031300
-10.003338 17.030354 1.474780 -101.405600 88.821960 -85.867117 -12.880691 0.387772 -3.087952 -1.650941 8.710190 -23.412127 1.157198 3.352937 61.935757 3.589972 23.645844 9.443685 6.577400 0.000000 -33.561900 7.994656 -0.400245 -0.727603 9.314366 -2.615627 -33.103594 2.531739 -1.353831 21.950679 -0.769930 -3.456127 0.391006 -1.016300 -0.000000 -47.052800
-9.865269 17.064618 1.506472 -108.530275 88.940577 -92.956166 -12.844336 0.319435 -3.102076 -2.267828 8.692550 -24.849486 1.138489 3.443474 62.682577 3.616027 23.867661 7.773453 6.069800 -0.000000 -32.584601 8.018120 -0.394934 -0.806634 9.247807 -2.870339 -32.327700 2.527818 -1.277427 21.486936 -0.789212 -3.565098 0.229424 -1.022800 0.000000 -47.200700
-9.728183 17.100461 1.535035 -115.488248 89.031254 -99.896962 -12.793785 0.257844 -3.117903 -2.889307 8.714490 -26.216718 1.099561 3.520185 63.142062 3.625780 23.934860 6.148110 5.516099 0.000000 -31.898700 8.046476 -0.389199 -0.891791 9.185842 -3.140569 -31.488133 2.530191 -1.194126 20.934843 -0.799396 -3.634816 0.103621 -1.024300 0.000000 -47.474200
-9.591809 17.137454 1.560757 -121.949261 89.093691 -106.361731 -12.726446 0.201097 -3.137220 -3.508721 8.790567 -27.508556 1.039922 3.580018 63.314389 3.622933 23.881167 4.603620 4.951700 0.000000 -31.368900 8.081802 -0.385542 -0.981302 9.131841 -3.429622 -30.581850 2.539416 -1.104891 20.293232 -0.800362 -3.664867 0.015706 -1.021200 0.000000 -47.856800
-9.455815 17.175043 1.584080 -127.733380 89.131731 -112.170077 -12.641135 0.147516 -3.160814 -4.126692 8.928636 -28.723788 0.959830 3.620644 63.206102 3.611609 23.741817 3.158094 4.401899 -0.000000 -30.850399 8.125353 -0.386173 -1.072267 9.083952 -3.738139 -29.612400 2.554688 -1.010861 19.564470 -0.792751 -3.659206 -0.028430 -1.015000 -0.000000 -48.318500
-9.319892 17.212663 1.605483 -132.834928 89.151982 -117.313015 -12.538015 0.096306 -3.187885 -4.749026 9.129112 -29.863611 0.860169 3.640596 62.826803 3.596765 23.555481 1.825492 3.887100 0.000000 -30.295600 8.177527 -0.392473 -1.161124 9.037087 -4.063910 -28.589016 2.574205 -0.912922 18.752944 -0.777859 -3.625632 -0.021010 -1.007900 -0.000000 -48.821801
-9.183790 17.249779 1.625422 -137.352965 89.161446 -121.884790 -12.417751 0.047686 -3.216906 -5.382825 9.387150 -30.931791 0.741931 3.639709 62.190412 3.582429 23.351255 0.597646 3.413300 -0.000000 -29.623400 8.238435 -0.404957 -1.244196 8.985427 -4.401306 -27.524523 2.595644 -0.812004 17.867131 -0.757401 -3.573838 0.043685 -1.002200 0.000000 -49.325600
-9.047289 17.285872 1.644235 -141.423930 89.165521 -126.015576 -12.281385 0.002426 -3.245532 -6.034582 9.692758 -31.932811 0.606251 3.618398 61.312081 3.571656 23.148483 -0.543336 2.978000 -0.000000 -28.777300 8.307748 -0.423607 -1.318001 8.924397 -4.742435 -26.434474 2.616780 -0.709000 16.917905 -0.733431 -3.514841 0.168008 -1.000000 0.000001 -49.791500
-8.910199 17.320518 1.662150 -145.180540 89.168667 -129.831976 -12.130330 -0.038735 -3.270888 -6.707755 10.032294 -32.870654 0.454621 3.577232 60.206280 3.566538 22.958239 -1.610575 2.577800 0.000000 -27.816100 8.384595 -0.448054 -1.379781 8.851481 -5.077911 -25.333879 2.635765 -0.604738 15.917811 -0.708074 -3.459206 0.348936 -1.002900 0.000000 -50.190200
-8.772315 17.353393 1.679154 -148.694538 89.170367 -133.396144 -11.967300 -0.076029 -3.287664 -7.401205 10.387276 -33.756088 0.289052 3.516609 58.888917 3.567640 22.779390 -2.614983 2.207700 0.000000 -26.789700 8.466199 -0.478958 -1.426187 8.770457 -5.398931 -24.242968 2.652134 -0.499759 14.880145 -0.683290 -3.416175 0.578908 -1.012100 -0.000000 -50.502800
-8.634013 17.384167 1.695320 -152.004242 89.175388 -136.750604 -11.793893 -0.109434 -3.300283 -8.112951 10.752897 -34.576280 0.108824 3.438289 57.372553 3.572700 22.590921 -3.612758 1.843100 0.000000 -25.503800 8.551488 -0.514291 -1.460003 8.676573 -5.693491 -23.157195 2.664065 -0.395207 13.816106 -0.661399 -3.395201 0.843139 -1.027800 -0.000000 -50.730800
-8.494964 17.412782 1.710338 -155.099738 89.178353 -139.874186 -11.615003 -0.140372 -3.298968 -8.834169 11.104850 -35.347047 -0.081641 3.341244 55.666209 3.581223 22.390031 -4.546385 1.506200 0.000000 -24.359001 8.635390 -0.555827 -1.478401 8.581090 -5.959421 -22.097215 2.673150 -0.290863 12.737654 -0.643108 -3.398765 1.129341 -1.050200 0.000000 -50.882100
